<?xml version="1.0" standalone="no"?><!DOCTYPE svg PUBLIC "-//W3C//DTD SVG 1.1//EN" "http://www.w3.org/Graphics/SVG/1.1/DTD/svg11.dtd"><svg t="1765216281435" class="icon" viewBox="0 0 1308 1024" version="1.1" xmlns="http://www.w3.org/2000/svg" p-id="60535" width="327" height="256" xmlns:xlink="http://www.w3.org/1999/xlink"><path d="M65.43696 1006.314335c-26.528497 0-47.751295-21.222798-47.751295-47.751295V196.310881c0-26.528497 21.222798-47.751295 47.751295-47.751296h1177.865285c26.528497 0 47.751295 21.222798 47.751296 47.751296v762.252159c0 26.528497-21.222798 47.751295-47.751296 47.751295H65.43696z" fill="#D04A49" p-id="60536"></path><path d="M1243.302245 166.24525c15.917098 0 30.06563 14.148532 30.065631 30.065631v762.252159c0 15.917098-14.148532 30.06563-30.065631 30.06563H65.43696c-15.917098 0-30.06563-14.148532-30.06563-30.06563V196.310881c0-15.917098 14.148532-30.06563 30.06563-30.065631h1177.865285m0-35.371329H65.43696C30.06563 130.873921 0 159.170984 0 196.310881v762.252159c0 35.37133 30.06563 65.43696 65.43696 65.43696h1177.865285c35.37133 0 65.43696-30.06563 65.436961-65.43696V196.310881c0-37.139896-30.06563-65.43696-65.436961-65.43696z" fill="#FFFFFF" p-id="60537"></path><path d="M1285.747841 394.390328v33.602764H21.222798v-33.602764h274.127806v-247.599309h31.834197v247.599309h654.369603v-247.599309h33.602764v247.599309z" fill="#D04A49" p-id="60538"></path><path d="M1015.157168 146.791019h-33.602764v247.599309h-654.369603v-247.599309h-31.834197v247.599309H21.222798v33.602764h1266.29361v-33.602764H1015.157168v-247.599309z" fill="#FFFFFF" p-id="60539"></path><path d="M1285.747841 693.278066V725.112263H1015.157168v298.887737h-33.602764V725.112263h-654.369603v298.887737h-31.834197V725.112263H21.222798v-31.834197z" fill="#D04A49" p-id="60540"></path><path d="M1287.516408 693.278066H21.222798V725.112263h274.127806v298.887737h31.834197V725.112263h654.369603v298.887737h33.602764V725.112263h272.35924v-31.834197z" fill="#FFFFFF" p-id="60541"></path><path d="M668.518135 825.920553c-116.725389 0-212.227979-95.502591-212.22798-213.996546 0-49.519862 22.991364-113.188256 70.74266-137.948187l33.602764-17.685665 1.768566 14.148532c10.611399-60.131261 40.677029-125.568221 127.336788-157.402418l33.602763-12.379965v45.982729c0 49.519862 0 88.428325 8.842832 120.262521 14.148532-22.991364 37.139896-42.445596 72.511227-53.056994l31.834197-8.842833v33.602764c0 40.677029 10.611399 65.43696 22.991364 91.965457 10.611399 24.759931 21.222798 49.519862 21.222798 83.122625 0 116.725389-95.502591 212.227979-212.227979 212.22798z" fill="#FFFFFF" p-id="60542"></path><path d="M811.772021 436.835924c-63.668394 17.685665-74.279793 70.74266-70.74266 102.576857-44.214162-53.056995-42.445596-114.956822-42.445596-203.385147-145.022453 54.825561-111.419689 213.996546-114.956822 261.747841-24.759931-19.454231-38.908463-54.825561-42.445596-102.576857-38.908463 19.454231-58.362694 72.511226-58.362694 116.725389 0 104.345423 83.122625 189.236615 187.468048 189.236615 102.576857 0 187.468048-84.891192 187.468049-189.236615-1.768566-61.899827-45.982729-90.196891-45.982729-175.088083z" fill="#FE7B16" p-id="60543"></path><path d="M38.908463 148.559585l61.899827-123.799654c3.537133-3.537133 8.842832-7.074266 14.148532-7.074266H1184.939551c5.305699 0 10.611399 3.537133 14.148532 8.842832l68.974093 123.799655H38.908463z" fill="#F47F7F" p-id="60544"></path><path d="M1184.939551 35.37133l53.056995 95.502591H68.974093L116.725389 35.37133H1184.939551m0-35.37133H114.956822c-12.379965 0-24.759931 7.074266-30.06563 17.685665L10.611399 166.24525h1285.747841L1215.005181 17.685665c-7.074266-10.611399-17.685665-17.685665-30.06563-17.685665z" fill="#FFFFFF" p-id="60545"></path><path d="M334.259067 150.328152h-40.677029L334.259067 0h40.67703zM972.711572 150.328152h40.677029L972.711572 1.768566h-40.67703z" fill="#FFFFFF" p-id="60546"></path></svg>